<svg width="170" height="48" viewBox="0 0 170 48" fill="none" xmlns="http://www.w3.org/2000/svg">
<path fill-rule="evenodd" clip-rule="evenodd" d="M22 46C34.1503 46 44 36.1503 44 24C44 11.8497 34.1503 2 22 2C9.84971 2 0 11.8497 0 24C0 36.1503 9.84971 46 22 46ZM28.8632 12.2485C29.1973 11.0619 28.0457 10.3601 26.994 11.1094L12.3124 21.5685C11.1718 22.3811 11.3512 24 12.5819 24H16.448V23.9701H23.9828L17.8433 26.1363L15.1368 35.7515C14.8027 36.9382 15.9542 37.6399 17.006 36.8906L31.6876 26.4315C32.8282 25.619 32.6487 24 31.4181 24H25.5553L28.8632 12.2485Z" fill="#155EEF"/>
<path d="M55.3809 33.9092V30.4292H58.1409V16.3892H55.3809V12.9092H66.1809C67.4609 12.9092 68.5709 13.1292 69.5109 13.5692C70.4709 13.9892 71.2109 14.5992 71.7309 15.3992C72.2709 16.1792 72.5409 17.1192 72.5409 18.2192V18.5192C72.5409 19.4792 72.3609 20.2692 72.0009 20.8892C71.6409 21.4892 71.2109 21.9592 70.7109 22.2992C70.2309 22.6192 69.7709 22.8492 69.3309 22.9892V23.5292C69.7709 23.6492 70.2509 23.8792 70.7709 24.2192C71.2909 24.5392 71.7309 25.0092 72.0909 25.6292C72.4709 26.2492 72.6609 27.0592 72.6609 28.0592V28.3592C72.6609 29.5192 72.3909 30.5192 71.8509 31.3592C71.3109 32.1792 70.5609 32.8092 69.6009 33.2492C68.6609 33.6892 67.5609 33.9092 66.3009 33.9092H55.3809ZM62.1009 30.3092H65.8209C66.6809 30.3092 67.3709 30.0992 67.8909 29.6792C68.4309 29.2592 68.7009 28.6592 68.7009 27.8792V27.5792C68.7009 26.7992 68.4409 26.1992 67.9209 25.7792C67.4009 25.3592 66.7009 25.1492 65.8209 25.1492H62.1009V30.3092ZM62.1009 21.5492H65.7609C66.5809 21.5492 67.2509 21.3392 67.7709 20.9192C68.3109 20.4992 68.5809 19.9192 68.5809 19.1792V18.8792C68.5809 18.1192 68.3209 17.5392 67.8009 17.1392C67.2809 16.7192 66.6009 16.5092 65.7609 16.5092H62.1009V21.5492Z" fill="#101828"/>
<path d="M81.6027 34.3292C80.1227 34.3292 78.7927 34.0292 77.6127 33.4292C76.4327 32.8292 75.5027 31.9592 74.8227 30.8192C74.1427 29.6792 73.8027 28.3092 73.8027 26.7092V26.2292C73.8027 24.6292 74.1427 23.2592 74.8227 22.1192C75.5027 20.9792 76.4327 20.1092 77.6127 19.5092C78.7927 18.9092 80.1227 18.6092 81.6027 18.6092C83.0827 18.6092 84.4127 18.9092 85.5927 19.5092C86.7727 20.1092 87.7027 20.9792 88.3827 22.1192C89.0627 23.2592 89.4027 24.6292 89.4027 26.2292V26.7092C89.4027 28.3092 89.0627 29.6792 88.3827 30.8192C87.7027 31.9592 86.7727 32.8292 85.5927 33.4292C84.4127 34.0292 83.0827 34.3292 81.6027 34.3292ZM81.6027 30.9692C82.7627 30.9692 83.7227 30.5992 84.4827 29.8592C85.2427 29.0992 85.6227 28.0192 85.6227 26.6192V26.3192C85.6227 24.9192 85.2427 23.8492 84.4827 23.1092C83.7427 22.3492 82.7827 21.9692 81.6027 21.9692C80.4427 21.9692 79.4827 22.3492 78.7227 23.1092C77.9627 23.8492 77.5827 24.9192 77.5827 26.3192V26.6192C77.5827 28.0192 77.9627 29.0992 78.7227 29.8592C79.4827 30.5992 80.4427 30.9692 81.6027 30.9692Z" fill="#101828"/>
<path d="M91.3919 33.9092V12.9092H95.1719V33.9092H91.3919Z" fill="#101828"/>
<path d="M103.561 33.9092C102.581 33.9092 101.781 33.6092 101.161 33.0092C100.561 32.3892 100.261 31.5692 100.261 30.5492V22.1492H96.5406V19.0292H100.261V14.4092H104.041V19.0292H108.121V22.1492H104.041V29.8892C104.041 30.4892 104.321 30.7892 104.881 30.7892H107.761V33.9092H103.561Z" fill="#101828"/>
<path d="M116.222 34.3292C114.282 34.3292 112.692 33.9092 111.452 33.0692C110.212 32.2292 109.462 31.0292 109.202 29.4692L112.682 28.5692C112.822 29.2692 113.052 29.8192 113.372 30.2192C113.712 30.6192 114.122 30.9092 114.602 31.0892C115.102 31.2492 115.642 31.3292 116.222 31.3292C117.102 31.3292 117.752 31.1792 118.172 30.8792C118.592 30.5592 118.802 30.1692 118.802 29.7092C118.802 29.2492 118.602 28.8992 118.202 28.6592C117.802 28.3992 117.162 28.1892 116.282 28.0292L115.442 27.8792C114.402 27.6792 113.452 27.4092 112.592 27.0692C111.732 26.7092 111.042 26.2192 110.522 25.5992C110.002 24.9792 109.742 24.1792 109.742 23.1992C109.742 21.7192 110.282 20.5892 111.362 19.8092C112.442 19.0092 113.862 18.6092 115.622 18.6092C117.282 18.6092 118.662 18.9792 119.762 19.7192C120.862 20.4592 121.582 21.4292 121.922 22.6292L118.412 23.7092C118.252 22.9492 117.922 22.4092 117.422 22.0892C116.942 21.7692 116.342 21.6092 115.622 21.6092C114.902 21.6092 114.352 21.7392 113.972 21.9992C113.592 22.2392 113.402 22.5792 113.402 23.0192C113.402 23.4992 113.602 23.8592 114.002 24.0992C114.402 24.3192 114.942 24.4892 115.622 24.6092L116.462 24.7592C117.582 24.9592 118.592 25.2292 119.492 25.5692C120.412 25.8892 121.132 26.3592 121.652 26.9792C122.192 27.5792 122.462 28.3992 122.462 29.4392C122.462 30.9992 121.892 32.2092 120.752 33.0692C119.632 33.9092 118.122 34.3292 116.222 34.3292Z" fill="#101828"/>
<path d="M124.275 33.9092V12.9092H128.055V20.8592H128.595C128.755 20.5392 129.005 20.2192 129.345 19.8992C129.685 19.5792 130.135 19.3192 130.695 19.1192C131.275 18.8992 132.005 18.7892 132.885 18.7892C134.045 18.7892 135.055 19.0592 135.915 19.5992C136.795 20.1192 137.475 20.8492 137.955 21.7892C138.435 22.7092 138.675 23.7892 138.675 25.0292V33.9092H134.895V25.3292C134.895 24.2092 134.615 23.3692 134.055 22.8092C133.515 22.2492 132.735 21.9692 131.715 21.9692C130.555 21.9692 129.655 22.3592 129.015 23.1392C128.375 23.8992 128.055 24.9692 128.055 26.3492V33.9092H124.275Z" fill="#101828"/>
<path d="M141.261 33.9092V19.0292H145.041V33.9092H141.261ZM143.151 17.2892C142.471 17.2892 141.891 17.0692 141.411 16.6292C140.951 16.1892 140.721 15.6092 140.721 14.8892C140.721 14.1692 140.951 13.5892 141.411 13.1492C141.891 12.7092 142.471 12.4892 143.151 12.4892C143.851 12.4892 144.431 12.7092 144.891 13.1492C145.351 13.5892 145.581 14.1692 145.581 14.8892C145.581 15.6092 145.351 16.1892 144.891 16.6292C144.431 17.0692 143.851 17.2892 143.151 17.2892Z" fill="#101828"/>
<path d="M150.19 33.9092V22.1492H146.41V19.0292H150.19V16.2692C150.19 15.2492 150.49 14.4392 151.09 13.8392C151.71 13.2192 152.51 12.9092 153.49 12.9092H157.39V16.0292H154.81C154.25 16.0292 153.97 16.3292 153.97 16.9292V19.0292H157.87V22.1492H153.97V33.9092H150.19Z" fill="#101828"/>
<path d="M164.703 33.9092C163.723 33.9092 162.923 33.6092 162.303 33.0092C161.703 32.3892 161.403 31.5692 161.403 30.5492V22.1492H157.683V19.0292H161.403V14.4092H165.183V19.0292H169.263V22.1492H165.183V29.8892C165.183 30.4892 165.463 30.7892 166.023 30.7892H168.903V33.9092H164.703Z" fill="#101828"/>
</svg>
