<svg width="198" height="48" viewBox="0 0 198 48" fill="none" xmlns="http://www.w3.org/2000/svg">
<path d="M31.2297 2H14.3719L0.800781 15.5711V32.4289L14.3719 46H31.2297L44.8008 32.4289V15.5711L31.2297 2ZM16.7044 32.641L8.01044 23.947L16.7044 15.253C19.9911 11.9663 25.3984 11.9663 28.6851 15.253L37.3791 23.947L28.6851 32.641C25.3984 35.9277 20.0972 35.9277 16.7044 32.641Z" fill="#444CE7"/>
<path d="M64.1403 34.24C66.8403 34.24 69.0603 32.86 69.7503 30.79V34H73.7403V25.9C73.7403 24.07 72.3003 22.51 70.3503 22.51H64.6503V25.9H68.7003C69.2103 25.9 69.5403 26.23 69.5403 26.74C69.5403 28.69 66.9603 30.58 64.3503 30.58C60.8703 30.58 58.1103 27.85 58.1103 23.5C58.1103 19.15 60.8703 16.63 64.4403 16.63C67.1403 16.63 69.0003 18.1 69.3303 20.35H73.8003C73.5303 15.85 69.7503 12.76 64.4703 12.76C58.9203 12.76 53.8203 16.33 53.8203 23.5C53.8203 30.67 58.7703 34.24 64.1403 34.24Z" fill="#101828"/>
<path d="M75.4531 34H79.6231V12.31H75.4531V34Z" fill="#101828"/>
<path d="M88.6182 34.24C93.2682 34.24 96.5982 30.94 96.5982 26.44C96.5982 21.94 93.2682 18.64 88.6182 18.64C83.9682 18.64 80.6382 21.94 80.6382 26.44C80.6382 30.94 83.9682 34.24 88.6182 34.24ZM88.6182 30.64C86.3682 30.64 84.8382 28.93 84.8382 26.44C84.8382 23.92 86.3682 22.21 88.6182 22.21C90.8682 22.21 92.3982 23.92 92.3982 26.44C92.3982 28.93 90.8682 30.64 88.6182 30.64Z" fill="#101828"/>
<path d="M105.929 34.24C110.399 34.24 113.069 31.15 113.069 26.44C113.069 21.73 110.399 18.64 105.989 18.64C104.099 18.64 102.629 19.36 101.789 20.47V12.31H97.6191V34H101.789V32.35C102.629 33.52 104.189 34.24 105.929 34.24ZM105.269 30.64C103.019 30.64 101.549 28.96 101.549 26.44C101.549 23.89 103.019 22.21 105.269 22.21C107.459 22.21 108.959 23.89 108.959 26.44C108.959 28.96 107.459 30.64 105.269 30.64Z" fill="#101828"/>
<path d="M120.05 18.64C115.91 18.64 113.45 21.07 113.27 24.1H116.99C117.05 22.84 117.98 21.7 119.81 21.7C121.52 21.7 122.51 22.57 122.51 23.83C122.51 24.46 122.12 24.94 121.37 24.94H118.82C115.52 24.94 113.3 26.74 113.3 29.71C113.3 32.29 115.31 34.24 118.25 34.24C120.32 34.24 122 33.31 122.51 31.9V34H126.65V24.28C126.65 20.86 123.86 18.64 120.05 18.64ZM119.3 31.21C118.13 31.21 117.29 30.52 117.29 29.53C117.29 28.36 118.19 27.58 119.45 27.58H122.51V27.79C122.51 29.71 121.34 31.21 119.3 31.21Z" fill="#101828"/>
<path d="M128.252 34H132.422V12.31H128.252V34Z" fill="#101828"/>
<path d="M134.637 34H143.217C147.657 34 150.717 31.72 150.717 27.73C150.717 24.97 149.097 23.29 147.177 22.54C148.407 21.88 149.637 20.38 149.637 18.4C149.637 14.89 146.787 13 142.977 13H134.637V34ZM139.077 21.01V16.57H142.557C144.567 16.57 145.467 17.38 145.467 18.79C145.467 20.2 144.567 21.01 142.647 21.01H139.077ZM139.077 30.1V24.82H142.827C145.317 24.82 146.427 25.78 146.427 27.49C146.427 29.2 145.317 30.1 142.827 30.1H139.077Z" fill="#101828"/>
<path d="M157.971 18.64C153.831 18.64 151.371 21.07 151.191 24.1H154.911C154.971 22.84 155.901 21.7 157.731 21.7C159.441 21.7 160.431 22.57 160.431 23.83C160.431 24.46 160.041 24.94 159.291 24.94H156.741C153.441 24.94 151.221 26.74 151.221 29.71C151.221 32.29 153.231 34.24 156.171 34.24C158.241 34.24 159.921 33.31 160.431 31.9V34H164.571V24.28C164.571 20.86 161.781 18.64 157.971 18.64ZM157.221 31.21C156.051 31.21 155.211 30.52 155.211 29.53C155.211 28.36 156.111 27.58 157.371 27.58H160.431V27.79C160.431 29.71 159.261 31.21 157.221 31.21Z" fill="#101828"/>
<path d="M165.934 34H170.134V25.72C170.134 23.77 171.424 22.36 173.254 22.36C174.994 22.36 176.164 23.68 176.164 25.51V34H180.364V24.58C180.364 21.1 178.144 18.64 174.724 18.64C172.654 18.64 170.974 19.51 170.134 20.98V18.88H165.934V34Z" fill="#101828"/>
<path d="M192.334 34H197.374L190.864 24.82L196.894 18.88H191.614L186.364 24.04V12.31H182.164V34H186.364V29.26L188.044 27.61L192.334 34Z" fill="#101828"/>
</svg>
