<svg width="168" height="48" viewBox="0 0 168 48" fill="none" xmlns="http://www.w3.org/2000/svg">
<path fill-rule="evenodd" clip-rule="evenodd" d="M19.9647 3.4479C19.4597 3.34403 18.9388 3.34403 18.4337 3.4479C17.8499 3.56797 17.3281 3.86023 16.9133 4.09258L16.8002 4.15574L2.74075 11.9666C2.70188 11.9882 2.66183 12.0102 2.62079 12.0328C2.18165 12.2747 1.6295 12.5788 1.20549 13.0389C0.838893 13.4368 0.561465 13.9082 0.391754 14.4219C0.195459 15.016 0.197755 15.6464 0.199582 16.1477C0.199753 16.1946 0.199919 16.2403 0.199919 16.2847V31.7067C0.199919 31.7511 0.199753 31.7969 0.199582 31.8437C0.197755 32.3451 0.195459 32.9754 0.391754 33.5695C0.561466 34.0832 0.838896 34.5547 1.20549 34.9525C1.62951 35.4126 2.18166 35.7167 2.62079 35.9586C2.66183 35.9812 2.70188 36.0033 2.74075 36.0249L16.8002 43.8357L16.9133 43.8988C17.3282 44.1312 17.8499 44.4235 18.4337 44.5435C18.9388 44.6474 19.4597 44.6474 19.9647 44.5435C20.5485 44.4235 21.0703 44.1312 21.4851 43.8988L21.5982 43.8357L35.6577 36.0249C35.6749 36.0153 35.6923 36.0057 35.7099 35.9959C35.7322 35.9837 35.7547 35.9712 35.7776 35.9586C36.2168 35.7167 36.7689 35.4126 37.193 34.9525C37.5595 34.5547 37.837 34.0832 38.0067 33.5695C38.203 32.9754 38.2007 32.3451 38.1989 31.8437C38.1987 31.7969 38.1985 31.7511 38.1985 31.7067V16.2847C38.1985 16.2403 38.1987 16.1946 38.1989 16.1477C38.2007 15.6464 38.203 15.016 38.0067 14.4219C37.837 13.9082 37.5595 13.4367 37.193 13.0389C36.7689 12.5788 36.2168 12.2747 35.7776 12.0328L35.7761 12.032C35.7356 12.0097 35.6961 11.9879 35.6577 11.9666L21.5982 4.15574L21.4851 4.09257C21.0703 3.86022 20.5485 3.56797 19.9647 3.4479ZM18.6456 7.47742C18.9335 7.31746 19.0805 7.23664 19.1901 7.18376L19.1992 7.17941L19.2083 7.18376C19.3179 7.23664 19.4649 7.31746 19.7528 7.47742L32.3863 14.496L19.1992 21.8222L6.01207 14.4961L18.6456 7.47742ZM3.99978 17.725L17.2992 25.1136L17.2993 39.766L4.58613 32.7032C4.28223 32.5343 4.12707 32.4472 4.01821 32.3779L4.00902 32.372L4.00833 32.3611C4.00057 32.2323 3.99978 32.0543 3.99978 31.7067V17.725Z" fill="#101828"/>
<path d="M55.49 30.3452H61.538V33.9092H50.873V14.9552H55.49V30.3452Z" fill="#101828"/>
<path d="M65.7922 17.2772C64.9822 17.2772 64.3162 17.0432 63.7942 16.5752C63.2902 16.0892 63.0382 15.4952 63.0382 14.7932C63.0382 14.0732 63.2902 13.4792 63.7942 13.0112C64.3162 12.5252 64.9822 12.2822 65.7922 12.2822C66.5842 12.2822 67.2322 12.5252 67.7362 13.0112C68.2582 13.4792 68.5192 14.0732 68.5192 14.7932C68.5192 15.4952 68.2582 16.0892 67.7362 16.5752C67.2322 17.0432 66.5842 17.2772 65.7922 17.2772ZM68.0872 18.8432V33.9092H63.4702V18.8432H68.0872Z" fill="#101828"/>
<path d="M76.8871 18.6272C77.9491 18.6272 78.8761 18.8432 79.6681 19.2752C80.4781 19.7072 81.0991 20.2742 81.5311 20.9762V18.8432H86.1481V33.8822C86.1481 35.2682 85.8691 36.5192 85.3111 37.6352C84.7711 38.7692 83.9341 39.6692 82.8001 40.3352C81.6841 41.0012 80.2891 41.3342 78.6151 41.3342C76.3831 41.3342 74.5741 40.8032 73.1881 39.7412C71.8021 38.6972 71.0101 37.2752 70.8121 35.4752H75.3751C75.5191 36.0512 75.8611 36.5012 76.4011 36.8252C76.9411 37.1672 77.6071 37.3382 78.3991 37.3382C79.3531 37.3382 80.1091 37.0592 80.6671 36.5012C81.2431 35.9612 81.5311 35.0882 81.5311 33.8822V31.7492C81.0811 32.4512 80.4601 33.0272 79.6681 33.4772C78.8761 33.9092 77.9491 34.1252 76.8871 34.1252C75.6451 34.1252 74.5201 33.8102 73.5121 33.1802C72.5041 32.5322 71.7031 31.6232 71.1091 30.4532C70.5331 29.2652 70.2451 27.8972 70.2451 26.3492C70.2451 24.8012 70.5331 23.4422 71.1091 22.2722C71.7031 21.1022 72.5041 20.2022 73.5121 19.5722C74.5201 18.9422 75.6451 18.6272 76.8871 18.6272ZM81.5311 26.3762C81.5311 25.2242 81.2071 24.3152 80.5591 23.6492C79.9291 22.9832 79.1551 22.6502 78.2371 22.6502C77.3191 22.6502 76.5361 22.9832 75.8881 23.6492C75.2581 24.2972 74.9431 25.1972 74.9431 26.3492C74.9431 27.5012 75.2581 28.4192 75.8881 29.1032C76.5361 29.7692 77.3191 30.1022 78.2371 30.1022C79.1551 30.1022 79.9291 29.7692 80.5591 29.1032C81.2071 28.4372 81.5311 27.5282 81.5311 26.3762Z" fill="#101828"/>
<path d="M98.4793 18.6812C100.207 18.6812 101.593 19.2572 102.637 20.4092C103.681 21.5432 104.203 23.1092 104.203 25.1072V33.9092H99.6133V25.7282C99.6133 24.7202 99.3523 23.9372 98.8303 23.3792C98.3083 22.8212 97.6063 22.5422 96.7243 22.5422C95.8423 22.5422 95.1403 22.8212 94.6183 23.3792C94.0963 23.9372 93.8353 24.7202 93.8353 25.7282V33.9092H89.2183V13.9292H93.8353V20.8682C94.3033 20.2022 94.9423 19.6712 95.7523 19.2752C96.5623 18.8792 97.4713 18.6812 98.4793 18.6812Z" fill="#101828"/>
<path d="M115.539 29.9942V33.9092H113.19C111.516 33.9092 110.211 33.5042 109.275 32.6942C108.339 31.8662 107.871 30.5252 107.871 28.6712V22.6772H106.035V18.8432H107.871V15.1712H112.488V18.8432H115.512V22.6772H112.488V28.7252C112.488 29.1752 112.596 29.4992 112.812 29.6972C113.028 29.8952 113.388 29.9942 113.892 29.9942H115.539Z" fill="#101828"/>
<path d="M122.457 20.9762C122.889 20.2742 123.51 19.7072 124.32 19.2752C125.13 18.8432 126.057 18.6272 127.101 18.6272C128.343 18.6272 129.468 18.9422 130.476 19.5722C131.484 20.2022 132.276 21.1022 132.852 22.2722C133.446 23.4422 133.743 24.8012 133.743 26.3492C133.743 27.8972 133.446 29.2652 132.852 30.4532C132.276 31.6232 131.484 32.5322 130.476 33.1802C129.468 33.8102 128.343 34.1252 127.101 34.1252C126.039 34.1252 125.112 33.9182 124.32 33.5042C123.528 33.0722 122.907 32.5052 122.457 31.8032V33.9092H117.84V13.9292H122.457V20.9762ZM129.045 26.3492C129.045 25.1972 128.721 24.2972 128.073 23.6492C127.443 22.9832 126.66 22.6502 125.724 22.6502C124.806 22.6502 124.023 22.9832 123.375 23.6492C122.745 24.3152 122.43 25.2242 122.43 26.3762C122.43 27.5282 122.745 28.4372 123.375 29.1032C124.023 29.7692 124.806 30.1022 125.724 30.1022C126.642 30.1022 127.425 29.7692 128.073 29.1032C128.721 28.4192 129.045 27.5012 129.045 26.3492Z" fill="#101828"/>
<path d="M142.754 34.1252C141.278 34.1252 139.946 33.8102 138.758 33.1802C137.588 32.5502 136.661 31.6502 135.977 30.4802C135.311 29.3102 134.978 27.9422 134.978 26.3762C134.978 24.8282 135.32 23.4692 136.004 22.2992C136.688 21.1112 137.624 20.2022 138.812 19.5722C140 18.9422 141.332 18.6272 142.808 18.6272C144.284 18.6272 145.616 18.9422 146.804 19.5722C147.992 20.2022 148.928 21.1112 149.612 22.2992C150.296 23.4692 150.638 24.8282 150.638 26.3762C150.638 27.9242 150.287 29.2922 149.585 30.4802C148.901 31.6502 147.956 32.5502 146.75 33.1802C145.562 33.8102 144.23 34.1252 142.754 34.1252ZM142.754 30.1292C143.636 30.1292 144.383 29.8052 144.995 29.1572C145.625 28.5092 145.94 27.5822 145.94 26.3762C145.94 25.1702 145.634 24.2432 145.022 23.5952C144.428 22.9472 143.69 22.6232 142.808 22.6232C141.908 22.6232 141.161 22.9472 140.567 23.5952C139.973 24.2252 139.676 25.1522 139.676 26.3762C139.676 27.5822 139.964 28.5092 140.54 29.1572C141.134 29.8052 141.872 30.1292 142.754 30.1292Z" fill="#101828"/>
<path d="M161.727 33.9092L158.838 29.7242L156.408 33.9092H151.413L156.381 26.2142L151.278 18.8432H156.462L159.351 23.0012L161.781 18.8432H166.776L161.727 26.4302L166.911 33.9092H161.727Z" fill="#101828"/>
</svg>
