<svg width="20" height="20" viewBox="0 0 20 20" fill="none" xmlns="http://www.w3.org/2000/svg">
<g clip-path="url(#clip0_729_91410)">
<path d="M4.5676 1.66012C4.49381 1.5652 4.40066 1.48706 4.29435 1.43091C4.18804 1.37475 4.071 1.34185 3.951 1.3344C3.831 1.32695 3.71078 1.34512 3.59835 1.38771C3.48591 1.43029 3.38381 1.4963 3.29885 1.58137L2.00635 2.87512C1.4026 3.48012 1.1801 4.33638 1.44385 5.08763C2.53852 8.19711 4.31922 11.0202 6.65385 13.3476C8.98126 15.6822 11.8044 17.4629 14.9138 18.5576C15.6651 18.8214 16.5213 18.5989 17.1263 17.9951L18.4188 16.7026C18.5039 16.6177 18.5699 16.5156 18.6125 16.4031C18.6551 16.2907 18.6733 16.1705 18.6658 16.0505C18.6584 15.9305 18.6255 15.8134 18.5693 15.7071C18.5132 15.6008 18.435 15.5077 18.3401 15.4339L15.4563 13.1914C15.3549 13.1127 15.237 13.0581 15.1114 13.0317C14.9858 13.0053 14.8559 13.0077 14.7313 13.0389L11.9938 13.7226C11.6284 13.814 11.2456 13.8091 10.8827 13.7086C10.5197 13.608 10.1889 13.4152 9.9226 13.1489L6.8526 10.0776C6.58606 9.81142 6.39301 9.48073 6.29224 9.11775C6.19147 8.75477 6.18643 8.37188 6.2776 8.00638L6.9626 5.26888C6.99373 5.14437 6.99618 5.01442 6.96977 4.88883C6.94335 4.76324 6.88875 4.64529 6.8101 4.54387L4.5676 1.66012ZM2.3551 0.638875C2.57384 0.420061 2.83664 0.250288 3.12602 0.140826C3.41541 0.0313647 3.72478 -0.0152795 4.03358 0.0039909C4.34238 0.0232613 4.64354 0.108005 4.91708 0.252596C5.19061 0.397186 5.43026 0.598314 5.6201 0.842625L7.8626 3.72512C8.27385 4.25387 8.41885 4.94263 8.25635 5.59263L7.5726 8.33013C7.53725 8.47191 7.53916 8.62043 7.57814 8.76126C7.61713 8.90209 7.69187 9.03045 7.7951 9.13388L10.8663 12.2051C10.9699 12.3086 11.0985 12.3834 11.2395 12.4224C11.3806 12.4614 11.5294 12.4632 11.6713 12.4276L14.4076 11.7439C14.7284 11.6637 15.0632 11.6574 15.3867 11.7257C15.7102 11.7939 16.014 11.9347 16.2751 12.1376L19.1576 14.3801C20.1938 15.1864 20.2888 16.7176 19.3613 17.6439L18.0688 18.9364C17.1438 19.8614 15.7613 20.2676 14.4726 19.8139C11.1741 18.6533 8.17919 16.7649 5.7101 14.2889C3.23421 11.8201 1.34586 8.8257 0.1851 5.52763C-0.2674 4.24013 0.13885 2.85637 1.06385 1.93137L2.35635 0.638875H2.3551Z" fill="white"/>
</g>
<defs>
<clipPath id="clip0_729_91410">
<rect width="20" height="20" fill="white"/>
</clipPath>
</defs>
</svg>
