<svg width="167" height="48" viewBox="0 0 167 48" fill="none" xmlns="http://www.w3.org/2000/svg">
<circle cx="22.5996" cy="24.2499" r="20.5" stroke="#6927DA" stroke-width="3"/>
<path d="M30.7307 32.3817C26.5913 36.5211 21.9017 39.2234 17.7254 40.2973C13.5113 41.3809 10.1146 40.7571 8.10324 38.7457C6.09183 36.7343 5.46805 33.3377 6.55167 29.1236C7.62559 24.9472 10.3278 20.2577 14.4672 16.1183C18.6066 11.9789 23.2961 9.27668 27.4725 8.20276C31.6866 7.11913 35.0832 7.74292 37.0946 9.75433C39.106 11.7657 39.7298 15.1624 38.6462 19.3765C37.5723 23.5528 34.8701 28.2424 30.7307 32.3817Z" stroke="#6927DA" stroke-width="3"/>
<path d="M30.732 16.1182C34.8714 20.2576 37.5736 24.9471 38.6476 29.1235C39.7312 33.3376 39.1074 36.7342 37.096 38.7456C35.0846 40.757 31.688 41.3808 27.4739 40.2972C23.2975 39.2233 18.608 36.5211 14.4686 32.3817C10.3292 28.2423 7.62696 23.5528 6.55304 19.3764C5.46942 15.1623 6.0932 11.7657 8.10461 9.75426C10.116 7.74285 13.5126 7.11906 17.7267 8.20269C21.9031 9.27661 26.5926 11.9788 30.732 16.1182Z" stroke="#6927DA" stroke-width="3"/>
<path d="M63.4503 34.24C68.1603 34.24 71.3403 31.78 71.3403 27.85C71.3403 19.54 60.3003 23.08 60.3003 18.7C60.3003 17.47 61.4103 16.63 63.1803 16.63C65.1903 16.63 66.4503 17.71 66.6003 19.36H70.8903C70.7703 15.37 67.7103 12.76 63.1803 12.76C58.9203 12.76 55.9203 15.22 55.9203 18.7C55.9203 26.95 66.8103 23.8 66.8103 27.91C66.8103 29.5 65.4603 30.34 63.4503 30.34C61.2303 30.34 59.8203 28.99 59.6403 26.86H55.3203C55.5003 31.33 58.6803 34.24 63.4503 34.24Z" fill="#101828"/>
<path d="M72.3605 40.12H76.5305V32.65C77.3405 33.67 78.8105 34.24 80.5205 34.24C84.8705 34.24 87.8105 31.15 87.8105 26.44C87.8105 21.73 85.1105 18.64 80.8805 18.64C78.9305 18.64 77.4305 19.36 76.5305 20.53V18.88H72.3605V40.12ZM80.0105 30.64C77.7605 30.64 76.2905 28.96 76.2905 26.44C76.2905 23.89 77.7605 22.21 80.0105 22.21C82.2005 22.21 83.7005 23.89 83.7005 26.44C83.7005 28.96 82.2005 30.64 80.0105 30.64Z" fill="#101828"/>
<path d="M88.8195 34H92.9895V25.72C92.9895 23.77 94.2795 22.36 96.1095 22.36C97.8495 22.36 99.0495 23.68 99.0495 25.51V34H103.22V24.58C103.22 21.1 101 18.64 97.6095 18.64C95.5095 18.64 93.8595 19.51 92.9895 20.98V12.31H88.8195V34Z" fill="#101828"/>
<path d="M114.885 28.87C114.555 30.16 113.445 30.82 111.765 30.82C109.665 30.82 108.315 29.5 108.015 27.37H118.875C118.905 27.04 118.935 26.59 118.935 26.02C118.935 22.57 116.805 18.64 111.465 18.64C106.335 18.64 103.995 22.57 103.995 26.41C103.995 30.22 106.635 34.24 111.765 34.24C115.485 34.24 118.365 32.14 118.965 28.87H114.885ZM111.465 21.7C113.475 21.7 114.645 23.05 114.765 24.73H108.075C108.435 22.63 109.575 21.7 111.465 21.7Z" fill="#101828"/>
<path d="M129.871 22.36V18.88H127.72C125.89 18.88 124.75 19.51 123.94 21.4V18.88H119.74V34H123.94V26.65C123.94 24.07 124.87 22.36 126.94 22.36H129.871Z" fill="#101828"/>
<path d="M144.271 18.88H140.071V27.16C140.071 29.08 138.781 30.52 136.951 30.52C135.241 30.52 134.041 29.2 134.041 27.37V18.88H129.871V28.3C129.871 31.75 132.091 34.24 135.481 34.24C137.551 34.24 139.231 33.34 140.071 31.9V34H144.271V18.88Z" fill="#101828"/>
<path d="M146.071 34H150.241V12.31H146.071V34Z" fill="#101828"/>
<path d="M162.147 28.87C161.817 30.16 160.707 30.82 159.027 30.82C156.927 30.82 155.577 29.5 155.277 27.37H166.137C166.167 27.04 166.197 26.59 166.197 26.02C166.197 22.57 164.067 18.64 158.727 18.64C153.597 18.64 151.257 22.57 151.257 26.41C151.257 30.22 153.897 34.24 159.027 34.24C162.747 34.24 165.627 32.14 166.227 28.87H162.147ZM158.727 21.7C160.737 21.7 161.907 23.05 162.027 24.73H155.337C155.697 22.63 156.837 21.7 158.727 21.7Z" fill="#101828"/>
</svg>
