<svg width="199" height="48" viewBox="0 0 199 48" fill="none" xmlns="http://www.w3.org/2000/svg">
<path d="M36.7072 11.1631C36.2749 10.7309 35.8427 10.2987 35.4105 9.86648C34.1138 8.48337 32.7307 7.10027 31.0018 6.23583C29.0136 5.1985 26.8525 5.45783 24.6914 5.45783C21.4066 5.45783 13.1944 5.45783 8.35352 5.45783L11.6384 9.86648C17.603 9.86648 26.939 9.86648 31.2612 9.86648C33.0765 9.86648 34.6325 10.2123 36.1021 11.1631C36.3614 11.2496 36.6207 11.2496 36.7072 11.1631Z" fill="#66C61C"/>
<path d="M40.3371 18.2516C39.9049 17.8194 39.4727 17.3872 39.0405 16.955C37.7438 15.5719 36.3607 14.1888 34.6318 13.3243C32.6436 12.287 30.4825 12.5463 28.3214 12.5463C25.4688 12.5463 18.6397 12.5463 13.7988 12.5463L17.0837 16.955C22.9619 16.955 31.0012 16.955 34.9776 16.955C36.7929 16.955 38.3489 17.3007 39.8185 18.2516C39.9914 18.3381 40.1643 18.3381 40.3371 18.2516Z" fill="#4CA30D"/>
<path d="M44.4004 25.1669C43.9681 24.7347 43.5359 24.3025 43.1037 23.8703C41.807 22.4872 40.4239 21.104 38.6951 20.2396C36.7068 19.2023 34.5457 19.4616 32.3846 19.4616C29.7049 19.4616 23.8267 19.4616 19.0723 19.4616L22.3571 23.8703C28.0624 23.8703 35.3237 23.8703 38.9544 23.8703C40.7697 23.8703 42.3257 24.216 43.7952 25.1669C44.0546 25.2534 44.2275 25.3398 44.4004 25.1669Z" fill="#3B7C0F"/>
<path d="M8.00781 36.8369C8.44003 37.2691 8.87225 37.7013 9.30447 38.1335C10.6011 39.5166 11.9842 40.8997 13.7131 41.7642C15.7013 42.8015 17.8624 42.5422 20.0235 42.5422H36.3615L33.0766 38.1335C27.1119 38.1335 17.776 38.1335 13.4538 38.1335C11.6385 38.1335 10.0825 37.7878 8.61292 36.8369C8.35359 36.7504 8.1807 36.7504 8.00781 36.8369Z" fill="#66C61C"/>
<path d="M4.37695 29.7487C4.80917 30.1809 5.24139 30.6131 5.67361 31.0453C6.97027 32.4284 8.35337 33.8116 10.0823 34.676C12.0705 35.7133 14.2316 35.454 16.3927 35.454H30.9153L27.6304 31.0453C21.7522 31.0453 13.7129 31.0453 9.73648 31.0453C7.92116 31.0453 6.36516 30.6996 4.89561 29.7487C4.72272 29.6622 4.54984 29.6622 4.37695 29.7487Z" fill="#4CA30D"/>
<path d="M0.400391 22.7465C0.832611 23.1787 1.26483 23.6109 1.69705 24.0431C2.99371 25.4262 4.37682 26.8094 6.1057 27.6738C8.09391 28.7111 10.255 28.4518 12.4161 28.4518H25.7285L22.4436 24.0431C16.7383 24.0431 9.47702 24.0431 5.84637 24.0431C4.03104 24.0431 2.47504 23.6974 1.0055 22.7465C0.746164 22.66 0.573279 22.66 0.400391 22.7465Z" fill="#3B7C0F"/>
<path d="M54.332 14.008V34H58.728V25.74H67.1V22.324H58.728V17.704H68.388V14.008H54.332Z" fill="#101828"/>
<path d="M79.4137 25.208H72.9457C72.9644 24.928 73.0204 24.6107 73.1137 24.256C73.2257 23.9013 73.403 23.5653 73.6457 23.248C73.907 22.9307 74.243 22.6693 74.6537 22.464C75.083 22.24 75.615 22.128 76.2497 22.128C77.2204 22.128 77.939 22.3893 78.4057 22.912C78.891 23.4347 79.227 24.2 79.4137 25.208ZM72.9457 27.728H83.3897C83.4644 26.608 83.371 25.5347 83.1097 24.508C82.8484 23.4813 82.419 22.5667 81.8217 21.764C81.243 20.9613 80.4964 20.3267 79.5817 19.86C78.667 19.3747 77.5937 19.132 76.3617 19.132C75.2604 19.132 74.2524 19.328 73.3377 19.72C72.4417 20.112 71.667 20.6533 71.0137 21.344C70.3604 22.016 69.8564 22.8187 69.5017 23.752C69.147 24.6853 68.9697 25.6933 68.9697 26.776C68.9697 27.896 69.1377 28.9227 69.4737 29.856C69.8284 30.7893 70.323 31.592 70.9577 32.264C71.5924 32.936 72.367 33.4587 73.2817 33.832C74.1964 34.1867 75.223 34.364 76.3617 34.364C78.0044 34.364 79.4044 33.9907 80.5617 33.244C81.719 32.4973 82.5777 31.256 83.1377 29.52H79.6377C79.507 29.968 79.1524 30.3973 78.5737 30.808C77.995 31.2 77.3044 31.396 76.5017 31.396C75.3817 31.396 74.523 31.1067 73.9257 30.528C73.3284 29.9493 73.0017 29.016 72.9457 27.728Z" fill="#101828"/>
<path d="M84.7398 23.976C84.7958 23.0427 85.0291 22.268 85.4398 21.652C85.8505 21.036 86.3731 20.5413 87.0078 20.168C87.6425 19.7947 88.3518 19.5333 89.1358 19.384C89.9385 19.216 90.7411 19.132 91.5438 19.132C92.2718 19.132 93.0091 19.188 93.7558 19.3C94.5025 19.3933 95.1838 19.5893 95.7998 19.888C96.4158 20.1867 96.9198 20.6067 97.3118 21.148C97.7038 21.6707 97.8998 22.3707 97.8998 23.248V30.78C97.8998 31.4333 97.9371 32.0587 98.0118 32.656C98.0865 33.2533 98.2171 33.7013 98.4038 34H94.3718C94.2971 33.776 94.2318 33.552 94.1758 33.328C94.1385 33.0853 94.1105 32.8427 94.0918 32.6C93.4571 33.2533 92.7105 33.7107 91.8518 33.972C90.9931 34.2333 90.1158 34.364 89.2198 34.364C88.5291 34.364 87.8851 34.28 87.2878 34.112C86.6905 33.944 86.1678 33.6827 85.7198 33.328C85.2718 32.9733 84.9171 32.5253 84.6558 31.984C84.4131 31.4427 84.2918 30.7987 84.2918 30.052C84.2918 29.2307 84.4318 28.5587 84.7118 28.036C85.0105 27.4947 85.3838 27.0653 85.8318 26.748C86.2985 26.4307 86.8211 26.1973 87.3998 26.048C87.9971 25.88 88.5945 25.7493 89.1918 25.656C89.7891 25.5627 90.3771 25.488 90.9558 25.432C91.5345 25.376 92.0478 25.292 92.4958 25.18C92.9438 25.068 93.2985 24.9093 93.5598 24.704C93.8211 24.48 93.9425 24.1627 93.9238 23.752C93.9238 23.3227 93.8491 22.9867 93.6998 22.744C93.5691 22.4827 93.3825 22.2867 93.1398 22.156C92.9158 22.0067 92.6451 21.9133 92.3278 21.876C92.0291 21.82 91.7025 21.792 91.3478 21.792C90.5638 21.792 89.9478 21.96 89.4998 22.296C89.0518 22.632 88.7905 23.192 88.7158 23.976H84.7398ZM93.9238 26.916C93.7558 27.0653 93.5411 27.1867 93.2798 27.28C93.0371 27.3547 92.7665 27.42 92.4678 27.476C92.1878 27.532 91.8891 27.5787 91.5718 27.616C91.2545 27.6533 90.9371 27.7 90.6198 27.756C90.3211 27.812 90.0225 27.8867 89.7238 27.98C89.4438 28.0733 89.1918 28.204 88.9678 28.372C88.7625 28.5213 88.5945 28.7173 88.4638 28.96C88.3331 29.2027 88.2678 29.5107 88.2678 29.884C88.2678 30.2387 88.3331 30.5373 88.4638 30.78C88.5945 31.0227 88.7718 31.2187 88.9958 31.368C89.2198 31.4987 89.4811 31.592 89.7798 31.648C90.0785 31.704 90.3865 31.732 90.7038 31.732C91.4878 31.732 92.0945 31.6013 92.5238 31.34C92.9531 31.0787 93.2705 30.7707 93.4758 30.416C93.6811 30.0427 93.8025 29.6693 93.8398 29.296C93.8958 28.9227 93.9238 28.624 93.9238 28.4V26.916Z" fill="#101828"/>
<path d="M105.186 19.524V15.184H101.21V19.524H98.8019V22.184H101.21V30.724C101.21 31.452 101.331 32.04 101.574 32.488C101.817 32.936 102.143 33.2813 102.554 33.524C102.983 33.7667 103.469 33.9253 104.01 34C104.57 34.0933 105.158 34.14 105.774 34.14C106.166 34.14 106.567 34.1307 106.978 34.112C107.389 34.0933 107.762 34.056 108.098 34V30.92C107.911 30.9573 107.715 30.9853 107.51 31.004C107.305 31.0227 107.09 31.032 106.866 31.032C106.194 31.032 105.746 30.92 105.522 30.696C105.298 30.472 105.186 30.024 105.186 29.352V22.184H108.098V19.524H105.186Z" fill="#101828"/>
<path d="M109.15 14.008V34H113.126V26.412C113.126 24.9373 113.368 23.8827 113.854 23.248C114.339 22.5947 115.123 22.268 116.206 22.268C117.158 22.268 117.82 22.5667 118.194 23.164C118.567 23.7427 118.754 24.6293 118.754 25.824V34H122.73V25.096C122.73 24.2 122.646 23.388 122.478 22.66C122.328 21.9133 122.058 21.288 121.666 20.784C121.274 20.2613 120.732 19.86 120.042 19.58C119.37 19.2813 118.502 19.132 117.438 19.132C116.691 19.132 115.926 19.328 115.142 19.72C114.358 20.0933 113.714 20.7 113.21 21.54H113.126V14.008H109.15Z" fill="#101828"/>
<path d="M134.651 25.208H128.183C128.202 24.928 128.258 24.6107 128.351 24.256C128.463 23.9013 128.641 23.5653 128.883 23.248C129.145 22.9307 129.481 22.6693 129.891 22.464C130.321 22.24 130.853 22.128 131.487 22.128C132.458 22.128 133.177 22.3893 133.643 22.912C134.129 23.4347 134.465 24.2 134.651 25.208ZM128.183 27.728H138.627C138.702 26.608 138.609 25.5347 138.347 24.508C138.086 23.4813 137.657 22.5667 137.059 21.764C136.481 20.9613 135.734 20.3267 134.819 19.86C133.905 19.3747 132.831 19.132 131.599 19.132C130.498 19.132 129.49 19.328 128.575 19.72C127.679 20.112 126.905 20.6533 126.251 21.344C125.598 22.016 125.094 22.8187 124.739 23.752C124.385 24.6853 124.207 25.6933 124.207 26.776C124.207 27.896 124.375 28.9227 124.711 29.856C125.066 30.7893 125.561 31.592 126.195 32.264C126.83 32.936 127.605 33.4587 128.519 33.832C129.434 34.1867 130.461 34.364 131.599 34.364C133.242 34.364 134.642 33.9907 135.799 33.244C136.957 32.4973 137.815 31.256 138.375 29.52H134.875C134.745 29.968 134.39 30.3973 133.811 30.808C133.233 31.2 132.542 31.396 131.739 31.396C130.619 31.396 129.761 31.1067 129.163 30.528C128.566 29.9493 128.239 29.016 128.183 27.728Z" fill="#101828"/>
<path d="M140.145 19.524V34H144.121V27.476C144.121 26.8227 144.187 26.216 144.317 25.656C144.448 25.096 144.663 24.6107 144.961 24.2C145.279 23.7707 145.689 23.4347 146.193 23.192C146.697 22.9493 147.313 22.828 148.041 22.828C148.284 22.828 148.536 22.8467 148.797 22.884C149.059 22.9027 149.283 22.9307 149.469 22.968V19.272C149.152 19.1787 148.863 19.132 148.601 19.132C148.097 19.132 147.612 19.2067 147.145 19.356C146.679 19.5053 146.24 19.72 145.829 20C145.419 20.2613 145.055 20.588 144.737 20.98C144.42 21.3533 144.168 21.764 143.981 22.212H143.925V19.524H140.145Z" fill="#101828"/>
<path d="M155.004 30.304V17.704H158.14C159.223 17.704 160.128 17.8627 160.856 18.18C161.603 18.4787 162.2 18.9173 162.648 19.496C163.096 20.0747 163.414 20.7747 163.6 21.596C163.806 22.3987 163.908 23.304 163.908 24.312C163.908 25.4133 163.768 26.3467 163.488 27.112C163.208 27.8773 162.835 28.5027 162.368 28.988C161.902 29.4547 161.37 29.7907 160.772 29.996C160.175 30.2013 159.559 30.304 158.924 30.304H155.004ZM150.608 14.008V34H159.232C160.763 34 162.088 33.748 163.208 33.244C164.347 32.7213 165.29 32.012 166.036 31.116C166.802 30.22 167.371 29.156 167.744 27.924C168.118 26.692 168.304 25.348 168.304 23.892C168.304 22.2307 168.071 20.784 167.604 19.552C167.156 18.32 166.522 17.2933 165.7 16.472C164.898 15.6507 163.936 15.0347 162.816 14.624C161.715 14.2133 160.52 14.008 159.232 14.008H150.608Z" fill="#101828"/>
<path d="M179.846 25.208H173.378C173.397 24.928 173.453 24.6107 173.546 24.256C173.658 23.9013 173.836 23.5653 174.078 23.248C174.34 22.9307 174.676 22.6693 175.086 22.464C175.516 22.24 176.048 22.128 176.682 22.128C177.653 22.128 178.372 22.3893 178.838 22.912C179.324 23.4347 179.66 24.2 179.846 25.208ZM173.378 27.728H183.822C183.897 26.608 183.804 25.5347 183.542 24.508C183.281 23.4813 182.852 22.5667 182.254 21.764C181.676 20.9613 180.929 20.3267 180.014 19.86C179.1 19.3747 178.026 19.132 176.794 19.132C175.693 19.132 174.685 19.328 173.77 19.72C172.874 20.112 172.1 20.6533 171.446 21.344C170.793 22.016 170.289 22.8187 169.934 23.752C169.58 24.6853 169.402 25.6933 169.402 26.776C169.402 27.896 169.57 28.9227 169.906 29.856C170.261 30.7893 170.756 31.592 171.39 32.264C172.025 32.936 172.8 33.4587 173.714 33.832C174.629 34.1867 175.656 34.364 176.794 34.364C178.437 34.364 179.837 33.9907 180.994 33.244C182.152 32.4973 183.01 31.256 183.57 29.52H180.07C179.94 29.968 179.585 30.3973 179.006 30.808C178.428 31.2 177.737 31.396 176.934 31.396C175.814 31.396 174.956 31.1067 174.358 30.528C173.761 29.9493 173.434 29.016 173.378 27.728Z" fill="#101828"/>
<path d="M193.348 34L198.248 19.524H194.3L191.248 29.408H191.192L188.14 19.524H183.968L188.924 34H193.348Z" fill="#101828"/>
</svg>
