<svg width="20" height="20" viewBox="0 0 20 20" fill="none" xmlns="http://www.w3.org/2000/svg">
<path d="M10.0002 10.0001C10.4585 10.0001 10.851 9.83675 11.1777 9.51008C11.5038 9.18397 11.6668 8.79175 11.6668 8.33341C11.6668 7.87508 11.5038 7.48258 11.1777 7.15591C10.851 6.8298 10.4585 6.66675 10.0002 6.66675C9.54183 6.66675 9.14961 6.8298 8.8235 7.15591C8.49683 7.48258 8.3335 7.87508 8.3335 8.33341C8.3335 8.79175 8.49683 9.18397 8.8235 9.51008C9.14961 9.83675 9.54183 10.0001 10.0002 10.0001ZM10.0002 16.1251C11.6946 14.5695 12.9516 13.1562 13.771 11.8851C14.5904 10.6145 15.0002 9.48619 15.0002 8.50008C15.0002 6.98619 14.5174 5.74647 13.5518 4.78091C12.5868 3.81591 11.4029 3.33341 10.0002 3.33341C8.59738 3.33341 7.41322 3.81591 6.44766 4.78091C5.48266 5.74647 5.00016 6.98619 5.00016 8.50008C5.00016 9.48619 5.40988 10.6145 6.22933 11.8851C7.04877 13.1562 8.30572 14.5695 10.0002 16.1251ZM10.0002 18.3334C7.76405 16.4306 6.09405 14.6631 4.99016 13.0309C3.88572 11.3992 3.3335 9.88897 3.3335 8.50008C3.3335 6.41675 4.00377 4.75703 5.34433 3.52091C6.68433 2.2848 8.23627 1.66675 10.0002 1.66675C11.7641 1.66675 13.316 2.2848 14.656 3.52091C15.9966 4.75703 16.6668 6.41675 16.6668 8.50008C16.6668 9.88897 16.1149 11.3992 15.011 13.0309C13.9066 14.6631 12.2363 16.4306 10.0002 18.3334Z" fill="white"/>
</svg>
