<svg width="182" height="48" viewBox="0 0 182 48" fill="none" xmlns="http://www.w3.org/2000/svg">
<g clip-path="url(#clip0_282_18315)">
<path d="M27.2684 4.12169L23.0476 2.99072L19.4907 16.2654L16.2795 4.28093L12.0586 5.4119L15.5281 18.3602L6.88627 9.71841L3.79641 12.8083L13.2754 22.2874L1.47081 19.1243L0.339844 23.3451L13.2379 26.8011C13.0902 26.1642 13.0121 25.5006 13.0121 24.8187C13.0121 19.992 16.9249 16.0792 21.7516 16.0792C26.5782 16.0792 30.491 19.992 30.491 24.8187C30.491 25.4962 30.4139 26.1557 30.268 26.7889L41.9899 29.9297L43.1208 25.709L30.1715 22.2392L41.977 19.0759L40.8459 14.8551L27.8972 18.3247L36.539 9.68293L33.4491 6.59307L24.1016 15.9406L27.2684 4.12169Z" fill="#FF4405"/>
<path d="M30.2557 26.838C29.8938 28.368 29.1298 29.7424 28.0815 30.8435L36.5735 39.3357L39.6634 36.2458L30.2557 26.838Z" fill="#FF4405"/>
<path d="M27.9958 30.9323C26.9349 32.0159 25.5942 32.8245 24.0907 33.2413L27.1807 44.7735L31.4015 43.6425L27.9958 30.9323Z" fill="#FF4405"/>
<path d="M23.933 33.2835C23.2354 33.4628 22.5043 33.5581 21.7508 33.5581C20.9436 33.5581 20.1619 33.4486 19.4198 33.2437L16.3269 44.7866L20.5477 45.9175L23.933 33.2835Z" fill="#FF4405"/>
<path d="M19.2705 33.2012C17.79 32.7638 16.4731 31.9448 15.4339 30.8581L6.92094 39.3711L10.0108 42.4609L19.2705 33.2012Z" fill="#FF4405"/>
<path d="M15.3637 30.7829C14.3423 29.6893 13.5982 28.3333 13.2441 26.827L1.48389 29.9781L2.61485 34.1989L15.3637 30.7829Z" fill="#FF4405"/>
</g>
<path d="M68.5191 12.9092V28.1192L58.7691 12.9092H54.8691V33.9092H58.7691V18.8192L68.5191 33.9092H72.4191V12.9092H68.5191Z" fill="#101828"/>
<path d="M74.1765 16.8392H78.1965V12.9092H74.1765V16.8392ZM74.2365 33.9092V18.9092H78.1365V33.9092H74.2365Z" fill="#101828"/>
<path d="M94.9166 26.4092C94.9166 21.2192 91.2266 18.7592 87.3266 18.7292C83.3966 18.6992 79.7666 21.2192 79.7666 26.4092C79.7666 31.5992 83.3966 34.1192 87.3266 34.0892C90.8966 34.0592 93.3566 32.4092 94.4966 29.6792L91.4666 28.4192C90.5366 30.2792 89.0666 30.9392 87.3266 30.9692C85.8266 30.9992 84.1166 30.2792 83.7566 27.6092H94.8266C94.8866 27.2192 94.9166 26.8292 94.9166 26.4092ZM87.3266 21.8192C88.8266 21.8492 90.3566 22.6592 90.8366 24.8192H83.8166C84.3266 22.6292 85.8566 21.7892 87.3266 21.8192Z" fill="#101828"/>
<path d="M103.93 21.6992V18.7292H101.47V14.7092L97.5697 15.9092V18.7292H95.1097V21.6992H97.5697V29.4692C97.5697 32.4092 97.8097 33.9092 102.37 33.9092H103.42V30.4892H102.37C101.65 30.4892 101.47 30.3692 101.47 29.4692V21.6992H103.93Z" fill="#101828"/>
<path d="M109.725 30.6392L118.005 22.1792V18.9092H105.585V22.1792H113.625L105.345 30.6392V33.9092H118.095V30.6392H109.725Z" fill="#101828"/>
<path d="M119.493 29.6792L123.423 29.0792C123.693 30.5792 125.463 31.1492 126.543 31.1492C127.653 31.1492 129.573 30.9092 129.573 29.1092C129.573 25.5992 119.943 29.9792 119.943 23.2592C119.943 18.9392 124.953 18.6992 126.543 18.6992C128.043 18.6992 132.393 18.9392 133.293 22.4192L129.573 23.1992C129.243 21.6092 127.563 21.3092 126.663 21.3092C125.763 21.3092 123.843 21.5192 123.843 23.2592C123.843 26.7392 133.473 22.2992 133.473 29.1092C133.473 33.6992 128.193 34.0892 126.543 34.0892C125.043 34.0892 120.273 33.6992 119.493 29.6792Z" fill="#101828"/>
<path d="M138.54 26.4092C138.54 30.0692 140.49 31.1792 142.53 31.1492C144.36 31.1192 145.62 30.3692 146.37 28.2692L149.58 29.8292C148.41 32.8892 145.56 34.0592 142.53 34.0892C138.6 34.1192 134.64 31.5992 134.64 26.4092C134.64 21.2192 138.6 18.6992 142.53 18.7292C145.56 18.7592 148.41 19.9292 149.58 22.9892L146.37 24.5492C145.62 22.4492 144.36 21.6992 142.53 21.6692C140.49 21.6392 138.54 22.7492 138.54 26.4092Z" fill="#101828"/>
<path d="M160.049 18.6692C158.039 18.6692 156.209 19.7192 155.039 21.9692V12.9092H151.139V33.9092H155.039V28.5992C155.039 21.7292 157.889 21.1592 158.939 21.1592C160.619 21.1592 160.859 22.8992 160.859 25.4492V33.9092H164.759V25.4492C164.759 22.2692 164.249 18.6692 160.049 18.6692Z" fill="#101828"/>
<path d="M181.225 26.4092C181.225 21.2192 177.535 18.7592 173.635 18.7292C169.705 18.6992 166.075 21.2192 166.075 26.4092C166.075 31.5992 169.705 34.1192 173.635 34.0892C177.205 34.0592 179.665 32.4092 180.805 29.6792L177.775 28.4192C176.845 30.2792 175.375 30.9392 173.635 30.9692C172.135 30.9992 170.425 30.2792 170.065 27.6092H181.135C181.195 27.2192 181.225 26.8292 181.225 26.4092ZM173.635 21.8192C175.135 21.8492 176.665 22.6592 177.145 24.8192H170.125C170.635 22.6292 172.165 21.7892 173.635 21.8192Z" fill="#101828"/>
<defs>
<clipPath id="clip0_282_18315">
<rect width="44" height="44" fill="white" transform="translate(0 2)"/>
</clipPath>
</defs>
</svg>
