<svg width="33" height="33" viewBox="0 0 33 33" fill="none" xmlns="http://www.w3.org/2000/svg">
<path d="M2.31465 10.2518C2.44719 8.21115 4.08782 6.61193 6.13023 6.51074C9.08777 6.36422 13.315 6.1875 16.5 6.1875C19.685 6.1875 23.9122 6.36422 26.8698 6.51074C28.9122 6.61193 30.5528 8.21115 30.6854 10.2518C30.8123 12.2068 30.9375 14.6125 30.9375 16.5C30.9375 18.3875 30.8123 20.7932 30.6854 22.7482C30.5528 24.7888 28.9122 26.3881 26.8698 26.4893C23.9122 26.6358 19.685 26.8125 16.5 26.8125C13.315 26.8125 9.08777 26.6358 6.13023 26.4893C4.08782 26.3881 2.44719 24.7888 2.31465 22.7482C2.18766 20.7932 2.0625 18.3875 2.0625 16.5C2.0625 14.6125 2.18766 12.2068 2.31465 10.2518Z" fill="#FC0D1B"/>
<path d="M13.4062 12.375V20.625L21.6562 16.5L13.4062 12.375Z" fill="white"/>
</svg>
